<svg viewBox="0 0 60 30" fill="none" xmlns="http://www.w3.org/2000/svg">
<path d="M3.37 3.65H5.17V19.52H22.12V21.35H3.37V3.65ZM1.72 23.03H23.77V17.84H6.85V1.97H1.72V23.03ZM0.97 1.22H7.6L10.51 4.31V17.09H24.52L27.43 20.18V26.69H4.06L0.97 23.78V1.22Z" fill="black"/>
<path d="M49.06 3.65V5.15L33.61 19.52H50.02V21.35H30.43V19.85L45.94 5.48H31.36V3.65H49.06ZM41.77 7.16L28.78 19.13V23.03H51.67V17.84H37.81L50.74 5.9V1.97H29.68V7.16H41.77ZM28.93 1.22H51.49L54.4 4.31V9.2L45.82 17.09H52.42L55.33 20.18V26.69H31.12L28.03 23.78V18.8L36.67 10.82H32.02L28.93 7.91V1.22Z" fill="black"/>
</svg>
