<svg width="20" height="20" viewBox="0 0 20 20" fill="none" xmlns="http://www.w3.org/2000/svg">
<path d="M17.0701 -0.000228882L2.92944 -0.000228882C1.31415 -0.000228882 -0.000244141 1.31416 -0.000244141 2.92946L-0.000244141 17.0701C-0.000244141 18.6854 1.31415 19.9998 2.92944 19.9998H8.82788L8.82788 12.9295H6.48413V9.41383H8.82788V7.03102C8.82788 5.09239 10.4049 3.5154 12.3435 3.5154L15.8982 3.5154L15.8982 7.03102L12.3435 7.03102V9.41383H15.8982L15.3123 12.9295H12.3435L12.3435 19.9998H17.0701C18.6854 19.9998 19.9998 18.6854 19.9998 17.0701L19.9998 2.92946C19.9998 1.31416 18.6854 -0.000228882 17.0701 -0.000228882Z" fill="black"/>
</svg>
