<svg width="20" height="20" viewBox="0 0 20 20" fill="none" xmlns="http://www.w3.org/2000/svg">
<path d="M9.99976 -0.000236511C4.47476 -0.000236511 -0.000244141 4.591 -0.000244141 10.2535C-0.000244141 14.7848 2.86476 18.6273 6.83726 19.9821C7.33726 20.0786 7.52059 19.7612 7.52059 19.489C7.52059 19.2456 7.51226 18.6004 7.50809 17.7456C4.72642 18.3638 4.13976 16.37 4.13976 16.37C3.68476 15.1865 3.02726 14.87 3.02726 14.87C2.12142 14.2343 3.09726 14.2474 3.09726 14.2474C4.10142 14.3187 4.62892 15.3039 4.62892 15.3039C5.52059 16.8717 6.96976 16.4186 7.54142 16.1569C7.63142 15.4934 7.88892 15.0421 8.17476 14.7856C5.95392 14.5291 3.61976 13.6474 3.61976 9.71875C3.61976 8.59964 4.00726 7.68487 4.64892 6.96748C4.53642 6.70836 4.19892 5.66577 4.73642 4.25361C4.73642 4.25361 5.57392 3.97883 7.48642 5.3049C8.28642 5.07708 9.13642 4.96404 9.98642 4.95882C10.8364 4.96404 11.6864 5.07708 12.4864 5.3049C14.3864 3.97883 15.2239 4.25361 15.2239 4.25361C15.7614 5.66577 15.4239 6.70836 15.3239 6.96748C15.9614 7.68487 16.3489 8.59964 16.3489 9.71875C16.3489 13.6578 14.0114 14.5248 11.7864 14.7769C12.1364 15.0848 12.4614 15.7134 12.4614 16.6743C12.4614 18.0465 12.4489 19.149 12.4489 19.4821C12.4489 19.7508 12.6239 20.0716 13.1364 19.969C17.1373 18.623 19.9998 14.7778 19.9998 10.2535C19.9998 4.591 15.5223 -0.000236511 9.99976 -0.000236511Z" fill="#212121"/>
</svg>
